<svg xmlns="http://www.w3.org/2000/svg" width="456" height="72" viewBox="0 0 456 72">
  <g fill="none" fill-rule="evenodd">
    <rect width="456" height="72" fill="#FDBB41"/>
    <path fill="#333" d="M21.28,15.2307692 L34.4871111,15.2307692 L53.5985778,43.9149408 L72.4769778,15.2307692 L85.4121778,15.2307692 L85.4121778,57.2104818 L71.8554667,57.2104818 L71.8554667,29.8529163 L53.7928,57.2104818 L48.5488,57.2104818 L29.8646222,29.5286348 L29.8646222,57.2104818 L21.28,57.2104818 L21.28,15.2307692 Z M139.314141,15.2307692 L139.314141,18.7978656 L111.579208,18.7978656 L111.579208,32.6535292 L134.613964,32.6535292 L134.613964,36.2501057 L111.579208,36.2501057 L111.579208,52.9063821 L139.314141,52.9063821 L139.314141,57.2104818 L98.022497,57.2104818 L98.022497,15.2307692 L139.314141,15.2307692 Z M149.593794,15.2307692 L169.676372,15.2307692 C174.829761,15.2307692 179.568735,15.6877068 183.893438,16.6015955 C188.218142,17.5154843 191.940697,18.8519037 195.061216,20.6108939 C198.181736,22.3698841 200.609489,24.5268258 202.34455,27.0817836 C204.07961,29.6367414 204.947127,32.5552456 204.947127,35.8373838 C204.947127,38.785412 204.215564,41.5614303 202.752416,44.165522 C201.289268,46.7696136 199.146371,49.034648 196.323661,50.9606932 C193.50095,52.8867383 190.037355,54.4098634 185.932772,55.5301141 C181.828188,56.6503649 177.121584,57.2104818 171.812816,57.2104818 L149.593794,57.2104818 L149.593794,15.2307692 Z M163.150505,52.9063821 L170.375572,52.9063821 C173.042904,52.9063821 175.554819,52.5329708 177.911394,51.7861369 C180.267969,51.0393031 182.326704,49.9436357 184.087661,48.4991019 C185.848618,47.054568 187.24053,45.2808643 188.263438,43.1779374 C189.286347,41.0750106 189.797794,38.6576637 189.797794,35.9258242 C189.797794,33.5674016 189.318717,31.3858934 188.36055,29.3812342 C187.402382,27.3765749 186.062262,25.6372643 184.34015,24.1632502 C182.618037,22.6892361 180.565776,21.5395223 178.183305,20.7140744 C175.800834,19.8886265 173.198282,19.4759087 170.375572,19.4759087 L163.150505,19.4759087 L163.150505,52.9063821 Z M215.809447,15.2307692 L229.366158,15.2307692 L229.366158,57.2104818 L215.809447,57.2104818 L215.809447,15.2307692 Z"/>
    <polygon fill="#FFF" points="243.2 15.231 256.407 15.231 275.519 43.915 294.397 15.231 307.332 15.231 307.332 57.21 293.775 57.21 293.775 29.853 275.713 57.21 270.469 57.21 251.785 29.529 251.785 57.21 243.2 57.21"/>
    <path fill="#FFF" d="M319.2,15.2307692 L332.795556,15.2307692 L332.795556,42.205093 C332.795556,43.8363353 333.12573,45.3643737 333.786089,46.789254 C334.446448,48.2141343 335.391653,49.4572009 336.621733,50.5184911 C337.851814,51.5797813 339.34731,52.4199568 341.108267,53.0390427 C342.869224,53.6581286 344.837322,53.9676669 347.012622,53.9676669 C349.187922,53.9676669 351.149547,53.6581286 352.897556,53.0390427 C354.645564,52.4199568 356.134586,51.5797813 357.364667,50.5184911 C358.594747,49.4572009 359.539952,48.2141343 360.200311,46.789254 C360.86067,45.3643737 361.190844,43.8363353 361.190844,42.205093 L361.190844,15.2307692 L369.736622,15.2307692 L369.736622,42.205093 C369.736622,44.3669804 369.251072,46.4158293 368.279956,48.3517012 C367.30884,50.2875731 365.793921,51.9826639 363.735156,53.4370245 C361.67639,54.8913851 359.022046,56.0410989 355.772044,56.8862003 C352.522043,57.7313018 348.631163,58.1538462 344.099289,58.1538462 C340.03355,58.1538462 336.453423,57.7313018 333.3588,56.8862003 C330.264177,56.0410989 327.668099,54.8864718 325.570489,53.4222844 C323.472878,51.9580971 321.886746,50.2531796 320.812044,48.307481 C319.737343,46.3617823 319.2,44.2981935 319.2,42.1166526 L319.2,15.2307692 Z"/>
    <polygon fill="#FFF" points="384.957 57.21 375.44 57.21 398.941 36.486 377.771 15.231 392.765 15.231 406.787 29.411 422.947 15.231 432.502 15.231 411.332 33.951 434.367 57.21 419.412 57.21 403.291 40.996"/>
  </g>
</svg>
